<svg width="32" height="32" viewBox="0 0 32 32" fill="none" xmlns="http://www.w3.org/2000/svg">
<path d="M26.3926 18.3907C27.6199 18.3907 28.6149 17.3958 28.6149 16.1685C28.6149 14.9412 27.6199 13.9463 26.3926 13.9463C25.1653 13.9463 24.1704 14.9412 24.1704 16.1685C24.1704 17.3958 25.1653 18.3907 26.3926 18.3907Z" fill="white" fill-opacity="0.54" stroke="white" stroke-opacity="0.5" stroke-width="2" stroke-miterlimit="10"/>
<path d="M25.6618 5.05566L18.3569 10.9872H5.59554C5.24228 10.9884 4.90382 11.1292 4.65403 11.379C4.40423 11.6288 4.26338 11.9673 4.26221 12.3206V19.7392C4.26338 20.0925 4.40423 20.4309 4.65403 20.6807C4.90382 20.9305 5.24228 21.0714 5.59554 21.0726H18.3564L25.6622 26.9072L25.6618 5.05566ZM8.33376 11.2592V20.7037V11.2592Z" fill="white"/>
<path d="M8.30533 10.8936L4.95644 11.0878L4.27689 11.9371L4.25244 20.0184L5.19911 21.1104L8.23244 21.086L8.30533 10.8936ZM12.3333 21.2202V26.6842C12.3333 27.3549 11.8369 27.8984 11.224 27.8984H9.00533C8.39244 27.8984 7.89555 27.3549 7.89555 26.6842V21.2202" fill="white"/>
<path d="M8.33376 11.2592V20.7037M25.6618 5.05566L18.3569 10.9872H5.59554C5.24228 10.9884 4.90382 11.1292 4.65403 11.379C4.40423 11.6288 4.26338 11.9673 4.26221 12.3206V19.7392C4.26338 20.0925 4.40423 20.4309 4.65403 20.6807C4.90382 20.9305 5.24228 21.0714 5.59554 21.0726H18.3564L25.6622 26.9072L25.6618 5.05566Z" stroke="white" stroke-width="2" stroke-linecap="round" stroke-linejoin="round"/>
<path d="M11.8891 22.8642V26.8642C11.8891 27.1 11.7954 27.3261 11.6287 27.4928C11.462 27.6595 11.2359 27.7531 11.0002 27.7531H9.22238C8.98664 27.7531 8.76054 27.6595 8.59385 27.4928C8.42715 27.3261 8.3335 27.1 8.3335 26.8642V22.8642M27.3842 14.1807C27.7558 14.3643 28.0686 14.6483 28.2874 15.0004C28.5061 15.3525 28.6219 15.7588 28.6218 16.1734C28.6218 16.5879 28.5057 16.9942 28.2868 17.3462C28.068 17.6983 27.755 17.9821 27.3833 18.1656" stroke="white" stroke-width="2" stroke-linecap="round" stroke-linejoin="round"/>
</svg>
