<svg width="32" height="32" viewBox="0 0 32 32" fill="none" xmlns="http://www.w3.org/2000/svg">
<path d="M26.3921 18.3907C27.6194 18.3907 28.6144 17.3958 28.6144 16.1685C28.6144 14.9412 27.6194 13.9463 26.3921 13.9463C25.1648 13.9463 24.1699 14.9412 24.1699 16.1685C24.1699 17.3958 25.1648 18.3907 26.3921 18.3907Z" fill="#737791" fill-opacity="0.54" stroke="#737791" stroke-opacity="0.5" stroke-width="2" stroke-miterlimit="10"/>
<path d="M25.6623 5.05566L18.3574 10.9872H5.59603C5.24277 10.9884 4.90431 11.1292 4.65451 11.379C4.40472 11.6288 4.26387 11.9673 4.2627 12.3206V19.7392C4.26387 20.0925 4.40472 20.4309 4.65451 20.6807C4.90431 20.9305 5.24277 21.0714 5.59603 21.0726H18.3569L25.6627 26.9072L25.6623 5.05566ZM8.33425 11.2592V20.7037V11.2592Z" fill="#D0CFCE"/>
<path d="M8.30582 10.8936L4.95693 11.0878L4.27737 11.9371L4.25293 20.0184L5.1996 21.1104L8.23293 21.086L8.30582 10.8936ZM12.3338 21.2202V26.6842C12.3338 27.3549 11.8374 27.8984 11.2245 27.8984H9.00582C8.39293 27.8984 7.89604 27.3549 7.89604 26.6842V21.2202" fill="#9B9B9A"/>
<path d="M8.33425 11.2592V20.7037M25.6623 5.05566L18.3574 10.9872H5.59603C5.24277 10.9884 4.90431 11.1292 4.65451 11.379C4.40472 11.6288 4.26387 11.9673 4.2627 12.3206V19.7392C4.26387 20.0925 4.40472 20.4309 4.65451 20.6807C4.90431 20.9305 5.24277 21.0714 5.59603 21.0726H18.3569L25.6627 26.9072L25.6623 5.05566Z" stroke="#737791" stroke-width="2" stroke-linecap="round" stroke-linejoin="round"/>
<path d="M11.8895 22.8642V26.8642C11.8895 27.1 11.7959 27.3261 11.6292 27.4928C11.4625 27.6595 11.2364 27.7531 11.0007 27.7531H9.22287C8.98713 27.7531 8.76103 27.6595 8.59433 27.4928C8.42764 27.3261 8.33398 27.1 8.33398 26.8642V22.8642M27.3846 14.1807C27.7563 14.3643 28.0691 14.6483 28.2879 15.0004C28.5066 15.3525 28.6224 15.7588 28.6223 16.1734C28.6222 16.5879 28.5062 16.9942 28.2873 17.3462C28.0685 17.6983 27.7555 17.9821 27.3838 18.1656" stroke="#737791" stroke-width="2" stroke-linecap="round" stroke-linejoin="round"/>
</svg>
