<svg width="98" height="30" viewBox="0 0 98 30" fill="none" xmlns="http://www.w3.org/2000/svg">
<path d="M14.0025 9.75V20.25H9.9975V9.75H14.0025ZM14.7525 20.25H18.75V9.75H14.7525V20.25ZM9.2475 20.25V9.75H5.25V20.25H9.2475Z" fill="#2196F3"/>
<path d="M35.3984 15.9912H36.9854C36.9346 16.5964 36.7653 17.1359 36.4775 17.6099C36.1898 18.0796 35.7856 18.4499 35.2651 18.7207C34.7446 18.9915 34.112 19.127 33.3672 19.127C32.7959 19.127 32.2817 19.0254 31.8247 18.8223C31.3677 18.6149 30.9762 18.3229 30.6504 17.9463C30.3245 17.5654 30.0749 17.1063 29.9014 16.5688C29.7321 16.0314 29.6475 15.4305 29.6475 14.7661V13.998C29.6475 13.3337 29.7342 12.7327 29.9077 12.1953C30.0854 11.6579 30.3394 11.1987 30.6694 10.8179C30.9995 10.4328 31.3952 10.1387 31.8564 9.93555C32.3219 9.73242 32.8446 9.63086 33.4243 9.63086C34.1606 9.63086 34.7827 9.76628 35.2905 10.0371C35.7983 10.3079 36.1919 10.6825 36.4712 11.1606C36.7547 11.6388 36.9282 12.1868 36.9917 12.8047H35.4048C35.3625 12.4069 35.2694 12.0662 35.1255 11.7827C34.9858 11.4992 34.7785 11.2834 34.5034 11.1353C34.2284 10.9829 33.8687 10.9067 33.4243 10.9067C33.0604 10.9067 32.743 10.9744 32.4722 11.1099C32.2013 11.2453 31.9749 11.4442 31.793 11.7065C31.611 11.9689 31.4735 12.2926 31.3804 12.6777C31.2915 13.0586 31.2471 13.4945 31.2471 13.9854V14.7661C31.2471 15.2316 31.2873 15.6548 31.3677 16.0356C31.4523 16.4123 31.5793 16.736 31.7485 17.0068C31.922 17.2777 32.1421 17.4871 32.4087 17.6353C32.6753 17.7834 32.9948 17.8574 33.3672 17.8574C33.82 17.8574 34.186 17.7855 34.4653 17.6416C34.7489 17.4977 34.9626 17.2882 35.1064 17.0132C35.2546 16.7339 35.3519 16.3932 35.3984 15.9912ZM46.2622 14.125V14.6328C46.2622 15.3311 46.1713 15.9574 45.9893 16.5117C45.8073 17.0661 45.5471 17.5379 45.2085 17.9272C44.8742 18.3166 44.4722 18.6149 44.0025 18.8223C43.5328 19.0254 43.0122 19.127 42.441 19.127C41.8739 19.127 41.3555 19.0254 40.8858 18.8223C40.4203 18.6149 40.0162 18.3166 39.6734 17.9272C39.3306 17.5379 39.064 17.0661 38.8736 16.5117C38.6874 15.9574 38.5943 15.3311 38.5943 14.6328V14.125C38.5943 13.4268 38.6874 12.8026 38.8736 12.2524C39.0598 11.6981 39.3221 11.2262 39.6607 10.8369C40.0035 10.4434 40.4076 10.145 40.8731 9.94189C41.3428 9.73454 41.8612 9.63086 42.4283 9.63086C42.9996 9.63086 43.5201 9.73454 43.9898 9.94189C44.4595 10.145 44.8636 10.4434 45.2022 10.8369C45.5407 11.2262 45.801 11.6981 45.9829 12.2524C46.1691 12.8026 46.2622 13.4268 46.2622 14.125ZM44.669 14.6328V14.1123C44.669 13.596 44.6182 13.1411 44.5166 12.7476C44.4193 12.3498 44.2733 12.0176 44.0787 11.751C43.8882 11.4801 43.6534 11.277 43.3741 11.1416C43.0948 11.002 42.7795 10.9321 42.4283 10.9321C42.077 10.9321 41.7639 11.002 41.4888 11.1416C41.2137 11.277 40.9789 11.4801 40.7842 11.751C40.5938 12.0176 40.4478 12.3498 40.3462 12.7476C40.2447 13.1411 40.1939 13.596 40.1939 14.1123V14.6328C40.1939 15.1491 40.2447 15.6061 40.3462 16.0039C40.4478 16.4017 40.5959 16.7381 40.7906 17.0132C40.9895 17.284 41.2264 17.4893 41.5015 17.6289C41.7766 17.7643 42.0897 17.832 42.441 17.832C42.7964 17.832 43.1117 17.7643 43.3868 17.6289C43.6618 17.4893 43.8946 17.284 44.085 17.0132C44.2754 16.7381 44.4193 16.4017 44.5166 16.0039C44.6182 15.6061 44.669 15.1491 44.669 14.6328ZM54.1046 17.7368V19H49.4644V17.7368H54.1046ZM49.9088 9.75781V19H48.3155V9.75781H49.9088ZM60.7154 9.75781H62.3024V15.9341C62.3024 16.6366 62.15 17.2248 61.8453 17.6987C61.5406 18.1727 61.1259 18.5303 60.6012 18.7715C60.0807 19.0085 59.4988 19.127 58.8556 19.127C58.1912 19.127 57.5987 19.0085 57.0782 18.7715C56.5577 18.5303 56.1473 18.1727 55.8468 17.6987C55.5506 17.2248 55.4025 16.6366 55.4025 15.9341V9.75781H56.9894V15.9341C56.9894 16.3784 57.0655 16.7445 57.2179 17.0322C57.3702 17.3158 57.5861 17.5252 57.8654 17.6606C58.1446 17.7961 58.4747 17.8638 58.8556 17.8638C59.2364 17.8638 59.5644 17.7961 59.8395 17.6606C60.1188 17.5252 60.3346 17.3158 60.4869 17.0322C60.6393 16.7445 60.7154 16.3784 60.7154 15.9341V9.75781ZM65.1427 9.75781H66.5646L69.237 16.8862L71.903 9.75781H73.3249L69.7956 19H68.6657L65.1427 9.75781ZM64.4953 9.75781H65.8473L66.0822 15.9277V19H64.4953V9.75781ZM72.6203 9.75781H73.9787V19H72.3854V15.9277L72.6203 9.75781ZM83.6618 9.75781V19H82.0686L77.9235 12.3794V19H76.3303V9.75781H77.9235L82.0812 16.3911V9.75781H83.6618ZM90.8821 16.6196C90.8821 16.4292 90.8524 16.2599 90.7932 16.1118C90.7382 15.9637 90.6387 15.8283 90.4949 15.7056C90.351 15.5828 90.1479 15.4644 89.8855 15.3501C89.6273 15.2316 89.2973 15.111 88.8953 14.9883C88.4551 14.8529 88.0489 14.7026 87.6765 14.5376C87.3083 14.3683 86.9867 14.1737 86.7117 13.9536C86.4366 13.7293 86.2229 13.4733 86.0705 13.1855C85.9182 12.8936 85.842 12.5571 85.842 12.1763C85.842 11.7996 85.9203 11.4569 86.0769 11.1479C86.2377 10.839 86.4641 10.5724 86.7561 10.3481C87.0523 10.1196 87.4014 9.94401 87.8035 9.82129C88.2055 9.69434 88.6498 9.63086 89.1365 9.63086C89.822 9.63086 90.4123 9.75781 90.9075 10.0117C91.4068 10.2656 91.7898 10.6063 92.0564 11.0337C92.3272 11.4611 92.4626 11.9329 92.4626 12.4492H90.8821C90.8821 12.1445 90.8165 11.8758 90.6853 11.6431C90.5583 11.4061 90.3637 11.2199 90.1013 11.0845C89.8432 10.9491 89.5152 10.8813 89.1174 10.8813C88.7408 10.8813 88.4276 10.9385 88.178 11.0527C87.9283 11.167 87.7421 11.3215 87.6194 11.5161C87.4967 11.7108 87.4353 11.9308 87.4353 12.1763C87.4353 12.3498 87.4755 12.5085 87.5559 12.6523C87.6363 12.792 87.759 12.9232 87.9241 13.0459C88.0891 13.1644 88.2965 13.2765 88.5461 13.3823C88.7958 13.4881 89.0899 13.5897 89.4285 13.687C89.9405 13.8394 90.387 14.0086 90.7678 14.1948C91.1487 14.3768 91.4661 14.5841 91.72 14.8169C91.9739 15.0496 92.1643 15.3141 92.2912 15.6104C92.4182 15.9023 92.4817 16.2345 92.4817 16.6069C92.4817 16.9963 92.4034 17.3475 92.2468 17.6606C92.0902 17.9696 91.866 18.234 91.574 18.4541C91.2862 18.6699 90.9392 18.8371 90.5329 18.9556C90.1309 19.0698 89.6824 19.127 89.1872 19.127C88.7429 19.127 88.3049 19.0677 87.8733 18.9492C87.4459 18.8307 87.0565 18.6509 86.7053 18.4097C86.3541 18.1642 86.0748 17.8595 85.8674 17.4956C85.6601 17.1274 85.5564 16.6979 85.5564 16.207H87.1496C87.1496 16.5075 87.2004 16.7635 87.302 16.9751C87.4078 17.1867 87.5538 17.3602 87.74 17.4956C87.9262 17.6268 88.142 17.7241 88.3874 17.7876C88.6371 17.8511 88.9037 17.8828 89.1872 17.8828C89.5596 17.8828 89.8707 17.8299 90.1203 17.7241C90.3743 17.6183 90.5647 17.4702 90.6916 17.2798C90.8186 17.0894 90.8821 16.8693 90.8821 16.6196Z" fill="#2196F3"/>
</svg>
