<svg width="32" height="32" viewBox="0 0 32 32" fill="none" xmlns="http://www.w3.org/2000/svg">
<path d="M22.0003 16.0003C22.4381 16.0003 22.8715 15.9141 23.2759 15.7466C23.6804 15.5791 24.0478 15.3335 24.3573 15.024C24.6669 14.7145 24.9124 14.347 25.0799 13.9426C25.2474 13.5382 25.3337 13.1047 25.3337 12.667C25.3337 11.7829 24.9825 10.9351 24.3573 10.31C23.7322 9.68485 22.8844 9.33366 22.0003 9.33366C21.1163 9.33366 20.2684 9.68485 19.6433 10.31C19.0182 10.9351 18.667 11.7829 18.667 12.667C18.667 13.1047 18.7532 13.5382 18.9207 13.9426C19.0882 14.347 19.3338 14.7145 19.6433 15.024C20.2684 15.6491 21.1163 16.0003 22.0003 16.0003ZM12.0003 14.667C13.0612 14.667 14.0786 14.2456 14.8288 13.4954C15.5789 12.7453 16.0003 11.7279 16.0003 10.667C16.0003 9.60613 15.5789 8.58871 14.8288 7.83857C14.0786 7.08842 13.0612 6.66699 12.0003 6.66699C10.9395 6.66699 9.92204 7.08842 9.1719 7.83857C8.42175 8.58871 8.00033 9.60613 8.00033 10.667C8.00033 11.7279 8.42175 12.7453 9.1719 13.4954C9.92204 14.2456 10.9395 14.667 12.0003 14.667ZM22.0003 18.667C19.5603 18.667 14.667 19.8937 14.667 22.3337V25.3337H29.3337V22.3337C29.3337 19.8937 24.4403 18.667 22.0003 18.667ZM12.0003 17.3337C8.89366 17.3337 2.66699 18.8937 2.66699 22.0003V25.3337H12.0003V22.3337C12.0003 21.2003 12.4403 19.2137 15.1603 17.707C14.0003 17.467 12.8803 17.3337 12.0003 17.3337Z" fill="white"/>
</svg>
