<svg width="90" height="30" viewBox="0 0 90 30" fill="none" xmlns="http://www.w3.org/2000/svg">
<path d="M18.75 12H5.25V9H18.75V12ZM18.75 13.5H5.25V16.5H18.75V13.5ZM18.75 18H5.25V21H18.75V18Z" fill="#2196F3"/>
<path d="M32.6245 19H30.6504L30.6631 17.7368H32.6245C33.1958 17.7368 33.674 17.612 34.0591 17.3623C34.4484 17.1126 34.7404 16.755 34.9351 16.2896C35.134 15.8241 35.2334 15.2697 35.2334 14.6265V14.125C35.2334 13.6257 35.1763 13.1834 35.062 12.7983C34.952 12.4132 34.7869 12.0895 34.5669 11.8271C34.3511 11.5648 34.0845 11.3659 33.7671 11.2305C33.4539 11.0951 33.0921 11.0273 32.6816 11.0273H30.6123V9.75781H32.6816C33.2952 9.75781 33.856 9.86149 34.3638 10.0688C34.8716 10.272 35.3096 10.5661 35.6777 10.9512C36.0501 11.3363 36.3358 11.7975 36.5347 12.335C36.7336 12.8724 36.833 13.4733 36.833 14.1377V14.6265C36.833 15.2909 36.7336 15.8918 36.5347 16.4292C36.3358 16.9666 36.0501 17.4279 35.6777 17.813C35.3053 18.1938 34.861 18.488 34.3447 18.6953C33.8327 18.8984 33.2593 19 32.6245 19ZM31.5327 9.75781V19H29.9395V9.75781H31.5327ZM44.9419 17.7368V19H40.0352V17.7368H44.9419ZM40.4859 9.75781V19H38.8926V9.75781H40.4859ZM44.3008 13.6172V14.8613H40.0352V13.6172H44.3008ZM44.9102 9.75781V11.0273H40.0352V9.75781H44.9102ZM54.0347 9.75781V19H52.4415L48.2965 12.3794V19H46.7032V9.75781H48.2965L52.4542 16.3911V9.75781H54.0347ZM61.255 16.6196C61.255 16.4292 61.2254 16.2599 61.1661 16.1118C61.1111 15.9637 61.0117 15.8283 60.8678 15.7056C60.7239 15.5828 60.5208 15.4644 60.2584 15.3501C60.0003 15.2316 59.6702 15.111 59.2682 14.9883C58.8281 14.8529 58.4218 14.7026 58.0494 14.5376C57.6813 14.3683 57.3597 14.1737 57.0846 13.9536C56.8095 13.7293 56.5958 13.4733 56.4435 13.1855C56.2911 12.8936 56.215 12.5571 56.215 12.1763C56.215 11.7996 56.2932 11.4569 56.4498 11.1479C56.6106 10.839 56.837 10.5724 57.129 10.3481C57.4252 10.1196 57.7744 9.94401 58.1764 9.82129C58.5784 9.69434 59.0227 9.63086 59.5094 9.63086C60.1949 9.63086 60.7853 9.75781 61.2804 10.0117C61.7797 10.2656 62.1627 10.6063 62.4293 11.0337C62.7001 11.4611 62.8356 11.9329 62.8356 12.4492H61.255C61.255 12.1445 61.1894 11.8758 61.0582 11.6431C60.9313 11.4061 60.7366 11.2199 60.4742 11.0845C60.2161 10.9491 59.8881 10.8813 59.4904 10.8813C59.1137 10.8813 58.8006 10.9385 58.5509 11.0527C58.3012 11.167 58.115 11.3215 57.9923 11.5161C57.8696 11.7108 57.8082 11.9308 57.8082 12.1763C57.8082 12.3498 57.8484 12.5085 57.9288 12.6523C58.0092 12.792 58.132 12.9232 58.297 13.0459C58.462 13.1644 58.6694 13.2765 58.9191 13.3823C59.1687 13.4881 59.4628 13.5897 59.8014 13.687C60.3134 13.8394 60.7599 14.0086 61.1407 14.1948C61.5216 14.3768 61.839 14.5841 62.0929 14.8169C62.3468 15.0496 62.5372 15.3141 62.6642 15.6104C62.7911 15.9023 62.8546 16.2345 62.8546 16.6069C62.8546 16.9963 62.7763 17.3475 62.6197 17.6606C62.4632 17.9696 62.2389 18.234 61.9469 18.4541C61.6591 18.6699 61.3121 18.8371 60.9059 18.9556C60.5039 19.0698 60.0553 19.127 59.5602 19.127C59.1158 19.127 58.6779 19.0677 58.2462 18.9492C57.8188 18.8307 57.4295 18.6509 57.0782 18.4097C56.727 18.1642 56.4477 17.8595 56.2404 17.4956C56.033 17.1274 55.9293 16.6979 55.9293 16.207H57.5226C57.5226 16.5075 57.5734 16.7635 57.6749 16.9751C57.7807 17.1867 57.9267 17.3602 58.1129 17.4956C58.2991 17.6268 58.5149 17.7241 58.7604 17.7876C59.01 17.8511 59.2766 17.8828 59.5602 17.8828C59.9326 17.8828 60.2436 17.8299 60.4933 17.7241C60.7472 17.6183 60.9376 17.4702 61.0646 17.2798C61.1915 17.0894 61.255 16.8693 61.255 16.6196ZM66.425 9.75781V19H64.8317V9.75781H66.425ZM72.4772 9.75781V19H70.8967V9.75781H72.4772ZM75.3781 9.75781V11.0273H68.0212V9.75781H75.3781ZM78.0408 9.75781L80.1863 14.1694L82.3318 9.75781H84.0964L80.9861 15.5977V19H79.3801V15.5977L76.2698 9.75781H78.0408Z" fill="#2196F3"/>
</svg>
