<svg width="85" height="30" viewBox="0 0 85 30" fill="none" xmlns="http://www.w3.org/2000/svg">
<path d="M17.25 15V20.25H6.75V15H5.25V20.25C5.25 21.075 5.925 21.75 6.75 21.75H17.25C18.075 21.75 18.75 21.075 18.75 20.25V15H17.25ZM12.75 15.5025L14.6925 13.5675L15.75 14.625L12 18.375L8.25 14.625L9.3075 13.5675L11.25 15.5025V8.25H12.75V15.5025Z" fill="#2196F3"/>
<path d="M35.9888 17.7368V19H31.082V17.7368H35.9888ZM31.5327 9.75781V19H29.9395V9.75781H31.5327ZM35.3477 13.6172V14.8613H31.082V13.6172H35.3477ZM35.957 9.75781V11.0273H31.082V9.75781H35.957ZM38.9624 9.75781L40.9239 13.1284L42.8853 9.75781H44.7198L41.9268 14.3345L44.7896 19H42.9361L40.9239 15.5659L38.9117 19H37.0518L39.9209 14.3345L37.1216 9.75781H38.9624ZM49.9342 15.5532H47.5284V14.29H49.9342C50.3531 14.29 50.6916 14.2223 50.9498 14.0869C51.2079 13.9515 51.3962 13.7653 51.5147 13.5283C51.6374 13.2871 51.6988 13.012 51.6988 12.7031C51.6988 12.4111 51.6374 12.1382 51.5147 11.8843C51.3962 11.6261 51.2079 11.4188 50.9498 11.2622C50.6916 11.1056 50.3531 11.0273 49.9342 11.0273H48.0172V19H46.4239V9.75781H49.9342C50.6493 9.75781 51.2566 9.88477 51.7559 10.1387C52.2595 10.3883 52.6425 10.7354 52.9049 11.1797C53.1672 11.6198 53.2984 12.1234 53.2984 12.6904C53.2984 13.2871 53.1672 13.7992 52.9049 14.2266C52.6425 14.654 52.2595 14.9819 51.7559 15.2104C51.2566 15.439 50.6493 15.5532 49.9342 15.5532ZM62.5563 14.125V14.6328C62.5563 15.3311 62.4653 15.9574 62.2833 16.5117C62.1014 17.0661 61.8411 17.5379 61.5026 17.9272C61.1682 18.3166 60.7662 18.6149 60.2965 18.8223C59.8268 19.0254 59.3063 19.127 58.735 19.127C58.1679 19.127 57.6495 19.0254 57.1798 18.8223C56.7143 18.6149 56.3102 18.3166 55.9674 17.9272C55.6246 17.5379 55.358 17.0661 55.1676 16.5117C54.9814 15.9574 54.8883 15.3311 54.8883 14.6328V14.125C54.8883 13.4268 54.9814 12.8026 55.1676 12.2524C55.3538 11.6981 55.6162 11.2262 55.9547 10.8369C56.2975 10.4434 56.7016 10.145 57.1671 9.94189C57.6368 9.73454 58.1552 9.63086 58.7223 9.63086C59.2936 9.63086 59.8141 9.73454 60.2838 9.94189C60.7535 10.145 61.1577 10.4434 61.4962 10.8369C61.8348 11.2262 62.095 11.6981 62.277 12.2524C62.4632 12.8026 62.5563 13.4268 62.5563 14.125ZM60.963 14.6328V14.1123C60.963 13.596 60.9122 13.1411 60.8107 12.7476C60.7133 12.3498 60.5673 12.0176 60.3727 11.751C60.1822 11.4801 59.9474 11.277 59.6681 11.1416C59.3888 11.002 59.0735 10.9321 58.7223 10.9321C58.371 10.9321 58.0579 11.002 57.7828 11.1416C57.5078 11.277 57.2729 11.4801 57.0782 11.751C56.8878 12.0176 56.7418 12.3498 56.6403 12.7476C56.5387 13.1411 56.4879 13.596 56.4879 14.1123V14.6328C56.4879 15.1491 56.5387 15.6061 56.6403 16.0039C56.7418 16.4017 56.8899 16.7381 57.0846 17.0132C57.2835 17.284 57.5205 17.4893 57.7955 17.6289C58.0706 17.7643 58.3837 17.832 58.735 17.832C59.0904 17.832 59.4057 17.7643 59.6808 17.6289C59.9558 17.4893 60.1886 17.284 60.379 17.0132C60.5695 16.7381 60.7133 16.4017 60.8107 16.0039C60.9122 15.6061 60.963 15.1491 60.963 14.6328ZM64.6095 9.75781H67.8786C68.581 9.75781 69.1798 9.86361 69.675 10.0752C70.1701 10.2868 70.5488 10.5999 70.8112 11.0146C71.0778 11.4251 71.2111 11.9329 71.2111 12.5381C71.2111 12.9993 71.1265 13.4056 70.9572 13.7568C70.7879 14.1081 70.5488 14.4043 70.2399 14.6455C69.931 14.8825 69.5628 15.0666 69.1354 15.1978L68.653 15.4326H65.714L65.7013 14.1694H67.904C68.2848 14.1694 68.6022 14.1017 68.8561 13.9663C69.11 13.8309 69.3004 13.6468 69.4274 13.4141C69.5586 13.1771 69.6242 12.9105 69.6242 12.6143C69.6242 12.2926 69.5607 12.0133 69.4338 11.7764C69.311 11.5352 69.1206 11.3511 68.8625 11.2241C68.6043 11.0929 68.2764 11.0273 67.8786 11.0273H66.2028V19H64.6095V9.75781ZM69.8844 19L67.7135 14.8486L69.383 14.8423L71.5856 18.9175V19H69.8844ZM76.6286 9.75781V19H75.048V9.75781H76.6286ZM79.5295 9.75781V11.0273H72.1726V9.75781H79.5295Z" fill="#2196F3"/>
</svg>
