<svg width="85" height="30" viewBox="0 0 85 30" fill="none" xmlns="http://www.w3.org/2000/svg">
<path d="M10.5 19.5H13.5V18H10.5V19.5ZM5.25 10.5V12H18.75V10.5H5.25ZM7.5 15.75H16.5V14.25H7.5V15.75Z" fill="#2196F3"/>
<path d="M31.5327 9.75781V19H29.9395V9.75781H31.5327ZM35.3032 13.8013V15.0645H31.1265V13.8013H35.3032ZM35.8301 9.75781V11.0273H31.1265V9.75781H35.8301ZM39.2608 9.75781V19H37.6675V9.75781H39.2608ZM47.4903 17.7368V19H42.8502V17.7368H47.4903ZM43.2945 9.75781V19H41.7013V9.75781H43.2945ZM51.3971 9.75781V19H49.8165V9.75781H51.3971ZM54.298 9.75781V11.0273H46.941V9.75781H54.298ZM62.026 17.7368V19H57.1193V17.7368H62.026ZM57.57 9.75781V19H55.9767V9.75781H57.57ZM61.3849 13.6172V14.8613H57.1193V13.6172H61.3849ZM61.9943 9.75781V11.0273H57.1193V9.75781H61.9943ZM63.7873 9.75781H67.0563C67.7588 9.75781 68.3576 9.86361 68.8527 10.0752C69.3479 10.2868 69.7266 10.5999 69.989 11.0146C70.2556 11.4251 70.3889 11.9329 70.3889 12.5381C70.3889 12.9993 70.3042 13.4056 70.135 13.7568C69.9657 14.1081 69.7266 14.4043 69.4177 14.6455C69.1088 14.8825 68.7406 15.0666 68.3132 15.1978L67.8308 15.4326H64.8918L64.8791 14.1694H67.0817C67.4626 14.1694 67.78 14.1017 68.0339 13.9663C68.2878 13.8309 68.4782 13.6468 68.6052 13.4141C68.7364 13.1771 68.802 12.9105 68.802 12.6143C68.802 12.2926 68.7385 12.0133 68.6115 11.7764C68.4888 11.5352 68.2984 11.3511 68.0402 11.2241C67.7821 11.0929 67.4541 11.0273 67.0563 11.0273H65.3806V19H63.7873V9.75781ZM69.0622 19L66.8913 14.8486L68.5607 14.8423L70.7634 18.9175V19H69.0622ZM77.2981 16.6196C77.2981 16.4292 77.2685 16.2599 77.2092 16.1118C77.1542 15.9637 77.0548 15.8283 76.9109 15.7056C76.767 15.5828 76.5639 15.4644 76.3015 15.3501C76.0434 15.2316 75.7133 15.111 75.3113 14.9883C74.8712 14.8529 74.4649 14.7026 74.0925 14.5376C73.7244 14.3683 73.4027 14.1737 73.1277 13.9536C72.8526 13.7293 72.6389 13.4733 72.4866 13.1855C72.3342 12.8936 72.258 12.5571 72.258 12.1763C72.258 11.7996 72.3363 11.4569 72.4929 11.1479C72.6537 10.839 72.8801 10.5724 73.1721 10.3481C73.4683 10.1196 73.8175 9.94401 74.2195 9.82129C74.6215 9.69434 75.0658 9.63086 75.5525 9.63086C76.238 9.63086 76.8284 9.75781 77.3235 10.0117C77.8228 10.2656 78.2058 10.6063 78.4724 11.0337C78.7432 11.4611 78.8787 11.9329 78.8787 12.4492H77.2981C77.2981 12.1445 77.2325 11.8758 77.1013 11.6431C76.9744 11.4061 76.7797 11.2199 76.5173 11.0845C76.2592 10.9491 75.9312 10.8813 75.5334 10.8813C75.1568 10.8813 74.8437 10.9385 74.594 11.0527C74.3443 11.167 74.1581 11.3215 74.0354 11.5161C73.9127 11.7108 73.8513 11.9308 73.8513 12.1763C73.8513 12.3498 73.8915 12.5085 73.9719 12.6523C74.0523 12.792 74.175 12.9232 74.3401 13.0459C74.5051 13.1644 74.7125 13.2765 74.9621 13.3823C75.2118 13.4881 75.5059 13.5897 75.8445 13.687C76.3565 13.8394 76.803 14.0086 77.1838 14.1948C77.5647 14.3768 77.8821 14.5841 78.136 14.8169C78.3899 15.0496 78.5803 15.3141 78.7073 15.6104C78.8342 15.9023 78.8977 16.2345 78.8977 16.6069C78.8977 16.9963 78.8194 17.3475 78.6628 17.6606C78.5063 17.9696 78.282 18.234 77.99 18.4541C77.7022 18.6699 77.3552 18.8371 76.949 18.9556C76.5469 19.0698 76.0984 19.127 75.6033 19.127C75.1589 19.127 74.7209 19.0677 74.2893 18.9492C73.8619 18.8307 73.4726 18.6509 73.1213 18.4097C72.7701 18.1642 72.4908 17.8595 72.2834 17.4956C72.0761 17.1274 71.9724 16.6979 71.9724 16.207H73.5657C73.5657 16.5075 73.6164 16.7635 73.718 16.9751C73.8238 17.1867 73.9698 17.3602 74.156 17.4956C74.3422 17.6268 74.558 17.7241 74.8035 17.7876C75.0531 17.8511 75.3197 17.8828 75.6033 17.8828C75.9757 17.8828 76.2867 17.8299 76.5364 17.7241C76.7903 17.6183 76.9807 17.4702 77.1077 17.2798C77.2346 17.0894 77.2981 16.8693 77.2981 16.6196Z" fill="#2196F3"/>
</svg>
