<svg width="16" height="17" viewBox="0 0 16 17" fill="none" xmlns="http://www.w3.org/2000/svg">
<g clip-path="url(#clip0_1380_7824)">
<path d="M12.6667 7.83398H3.33333C2.59695 7.83398 2 8.43094 2 9.16732V13.834C2 14.5704 2.59695 15.1673 3.33333 15.1673H12.6667C13.403 15.1673 14 14.5704 14 13.834V9.16732C14 8.43094 13.403 7.83398 12.6667 7.83398Z" stroke="#667085" stroke-width="2" stroke-linecap="round" stroke-linejoin="round"/>
<path d="M4.66797 7.83398V5.16732C4.66797 4.28326 5.01916 3.43542 5.64428 2.8103C6.2694 2.18517 7.11725 1.83398 8.0013 1.83398C8.88536 1.83398 9.7332 2.18517 10.3583 2.8103C10.9834 3.43542 11.3346 4.28326 11.3346 5.16732V7.83398" stroke="#667085" stroke-width="2" stroke-linecap="round" stroke-linejoin="round"/>
</g>
<defs>
<clipPath id="clip0_1380_7824">
<rect width="16" height="16" fill="white" transform="translate(0 0.5)"/>
</clipPath>
</defs>
</svg>
