<svg width="24" height="25" viewBox="0 0 24 25" fill="none" xmlns="http://www.w3.org/2000/svg">
<g id="mdi-light:logout">
<path id="Vector" d="M5 3.19336H11C11.7956 3.19336 12.5587 3.50943 13.1213 4.07204C13.6839 4.63465 14 5.39771 14 6.19336V10.1934H13V6.19336C13 5.66293 12.7893 5.15422 12.4142 4.77915C12.0391 4.40407 11.5304 4.19336 11 4.19336H5C4.46957 4.19336 3.96086 4.40407 3.58579 4.77915C3.21071 5.15422 3 5.66293 3 6.19336V19.1934C3 19.7238 3.21071 20.2325 3.58579 20.6076C3.96086 20.9826 4.46957 21.1934 5 21.1934H11C11.5304 21.1934 12.0391 20.9826 12.4142 20.6076C12.7893 20.2325 13 19.7238 13 19.1934V15.1934H14V19.1934C14 19.989 13.6839 20.7521 13.1213 21.3147C12.5587 21.8773 11.7956 22.1934 11 22.1934H5C4.20435 22.1934 3.44129 21.8773 2.87868 21.3147C2.31607 20.7521 2 19.989 2 19.1934V6.19336C2 5.39771 2.31607 4.63465 2.87868 4.07204C3.44129 3.50943 4.20435 3.19336 5 3.19336ZM8 12.1934H19.25L16 8.94336L16.66 8.19336L21.16 12.6934L16.66 17.1934L16 16.4434L19.25 13.1934H8V12.1934Z" fill="#FF0000"/>
</g>
</svg>
