<svg width="137" height="19" viewBox="0 0 137 19" fill="none" xmlns="http://www.w3.org/2000/svg">
<path d="M17.2344 13.1953C17.2344 13.8906 17.1016 14.5469 16.8359 15.1641C16.5781 15.7734 16.2188 16.3086 15.7578 16.7695C15.3047 17.2227 14.7695 17.582 14.1523 17.8477C13.543 18.1055 12.8906 18.2344 12.1953 18.2344C11.5703 18.2344 10.9688 18.125 10.3906 17.9062C9.82031 17.6875 9.30469 17.3672 8.84375 16.9453C8.38281 17.3672 7.86328 17.6875 7.28516 17.9062C6.70703 18.125 6.10547 18.2344 5.48047 18.2344C4.78516 18.2344 4.12891 18.1055 3.51172 17.8477C2.90234 17.582 2.36719 17.2227 1.90625 16.7695C1.45312 16.3086 1.09375 15.7734 0.828125 15.1641C0.570312 14.5469 0.441406 13.8906 0.441406 13.1953V1.19531H3.80469V13.1953C3.80469 13.4297 3.84766 13.6523 3.93359 13.8633C4.01953 14.0664 4.13672 14.2461 4.28516 14.4023C4.44141 14.5508 4.62109 14.668 4.82422 14.7539C5.02734 14.8398 5.24609 14.8828 5.48047 14.8828C5.71484 14.8828 5.93359 14.8398 6.13672 14.7539C6.33984 14.668 6.51562 14.5508 6.66406 14.4023C6.82031 14.2461 6.94141 14.0664 7.02734 13.8633C7.11328 13.6523 7.15625 13.4297 7.15625 13.1953V1.19531H10.5195V13.1953C10.5195 13.4297 10.5625 13.6523 10.6484 13.8633C10.7344 14.0664 10.8516 14.2461 11 14.4023C11.1562 14.5508 11.3359 14.668 11.5391 14.7539C11.7422 14.8398 11.9609 14.8828 12.1953 14.8828C12.4297 14.8828 12.6484 14.8398 12.8516 14.7539C13.0547 14.668 13.2305 14.5508 13.3789 14.4023C13.5352 14.2461 13.6562 14.0664 13.7422 13.8633C13.8359 13.6523 13.8828 13.4297 13.8828 13.1953V1.19531H17.2344V13.1953ZM30.1367 11.2852V7.92188C30.1367 7.46094 30.0469 7.02734 29.8672 6.62109C29.6953 6.20703 29.457 5.84766 29.1523 5.54297C28.8477 5.23828 28.4883 5 28.0742 4.82812C27.668 4.64844 27.2344 4.55859 26.7734 4.55859C26.3125 4.55859 25.875 4.64844 25.4609 4.82812C25.0547 5 24.6992 5.23828 24.3945 5.54297C24.0898 5.84766 23.8477 6.20703 23.668 6.62109C23.4961 7.02734 23.4102 7.46094 23.4102 7.92188V11.2852H30.1367ZM33.5 18H30.1367V14.6367H23.4102V18H20.0586V7.92188C20.0586 6.99219 20.2344 6.12109 20.5859 5.30859C20.9375 4.48828 21.4141 3.77344 22.0156 3.16406C22.625 2.55469 23.3359 2.07422 24.1484 1.72266C24.9688 1.37109 25.8438 1.19531 26.7734 1.19531C27.7031 1.19531 28.5742 1.37109 29.3867 1.72266C30.207 2.07422 30.9219 2.55469 31.5312 3.16406C32.1406 3.77344 32.6211 4.48828 32.9727 5.30859C33.3242 6.12109 33.5 6.99219 33.5 7.92188V18ZM39.7812 18H36.418V1.19531H48.1836V4.55859H39.7812V7.92188H44.8203V11.2852H39.7812V18ZM59.4336 11.2852V7.92188C59.4336 7.46094 59.3438 7.02734 59.1641 6.62109C58.9922 6.20703 58.7539 5.84766 58.4492 5.54297C58.1445 5.23828 57.7852 5 57.3711 4.82812C56.9648 4.64844 56.5312 4.55859 56.0703 4.55859C55.6094 4.55859 55.1719 4.64844 54.7578 4.82812C54.3516 5 53.9961 5.23828 53.6914 5.54297C53.3867 5.84766 53.1445 6.20703 52.9648 6.62109C52.793 7.02734 52.707 7.46094 52.707 7.92188V11.2852H59.4336ZM62.7969 18H59.4336V14.6367H52.707V18H49.3555V7.92188C49.3555 6.99219 49.5312 6.12109 49.8828 5.30859C50.2344 4.48828 50.7109 3.77344 51.3125 3.16406C51.9219 2.55469 52.6328 2.07422 53.4453 1.72266C54.2656 1.37109 55.1406 1.19531 56.0703 1.19531C57 1.19531 57.8711 1.37109 58.6836 1.72266C59.5039 2.07422 60.2188 2.55469 60.8281 3.16406C61.4375 3.77344 61.918 4.48828 62.2695 5.30859C62.6211 6.12109 62.7969 6.99219 62.7969 7.92188V18ZM75.6055 11.2852V7.92188C75.6055 7.46094 75.5156 7.02734 75.3359 6.62109C75.1641 6.20703 74.9258 5.84766 74.6211 5.54297C74.3164 5.23828 73.957 5 73.543 4.82812C73.1367 4.64844 72.7031 4.55859 72.2422 4.55859C71.7812 4.55859 71.3438 4.64844 70.9297 4.82812C70.5234 5 70.168 5.23828 69.8633 5.54297C69.5586 5.84766 69.3164 6.20703 69.1367 6.62109C68.9648 7.02734 68.8789 7.46094 68.8789 7.92188V11.2852H75.6055ZM78.9688 18H75.6055V14.6367H68.8789V18H65.5273V7.92188C65.5273 6.99219 65.7031 6.12109 66.0547 5.30859C66.4062 4.48828 66.8828 3.77344 67.4844 3.16406C68.0938 2.55469 68.8047 2.07422 69.6172 1.72266C70.4375 1.37109 71.3125 1.19531 72.2422 1.19531C73.1719 1.19531 74.043 1.37109 74.8555 1.72266C75.6758 2.07422 76.3906 2.55469 77 3.16406C77.6094 3.77344 78.0898 4.48828 78.4414 5.30859C78.793 6.12109 78.9688 6.99219 78.9688 7.92188V18ZM102.031 16.2773C101.25 16.9492 100.375 17.4648 99.4062 17.8242C98.4375 18.1836 97.4336 18.3633 96.3945 18.3633C95.5977 18.3633 94.8281 18.2578 94.0859 18.0469C93.3516 17.8438 92.6602 17.5547 92.0117 17.1797C91.3711 16.7969 90.7852 16.3398 90.2539 15.8086C89.7227 15.2773 89.2656 14.6914 88.8828 14.0508C88.5078 13.4023 88.2148 12.7109 88.0039 11.9766C87.8008 11.2344 87.6992 10.4648 87.6992 9.66797C87.6992 8.87109 87.8008 8.10156 88.0039 7.35938C88.2148 6.61719 88.5078 5.92578 88.8828 5.28516C89.2656 4.63672 89.7227 4.04688 90.2539 3.51562C90.7852 2.98438 91.3711 2.53125 92.0117 2.15625C92.6602 1.77344 93.3516 1.48047 94.0859 1.27734C94.8281 1.06641 95.5977 0.960938 96.3945 0.960938C97.4336 0.960938 98.4375 1.14062 99.4062 1.5C100.375 1.85156 101.25 2.36719 102.031 3.04688L100.25 5.97656C99.7578 5.44531 99.1758 5.03906 98.5039 4.75781C97.832 4.46875 97.1289 4.32422 96.3945 4.32422C95.6523 4.32422 94.957 4.46484 94.3086 4.74609C93.6602 5.02734 93.0938 5.41016 92.6094 5.89453C92.125 6.37109 91.7422 6.9375 91.4609 7.59375C91.1797 8.24219 91.0391 8.93359 91.0391 9.66797C91.0391 10.4023 91.1797 11.0938 91.4609 11.7422C91.7422 12.3828 92.125 12.9453 92.6094 13.4297C93.0938 13.9141 93.6602 14.2969 94.3086 14.5781C94.957 14.8594 95.6523 15 96.3945 15C97.1289 15 97.832 14.8594 98.5039 14.5781C99.1758 14.2891 99.7578 13.8789 100.25 13.3477L102.031 16.2773ZM107.352 4.55859V11.2852H110.715C111.176 11.2852 111.609 11.1992 112.016 11.0273C112.422 10.8477 112.777 10.6055 113.082 10.3008C113.387 9.99609 113.625 9.64062 113.797 9.23438C113.977 8.82031 114.066 8.38281 114.066 7.92188C114.066 7.46094 113.977 7.02734 113.797 6.62109C113.625 6.20703 113.387 5.84766 113.082 5.54297C112.777 5.23828 112.422 5 112.016 4.82812C111.609 4.64844 111.176 4.55859 110.715 4.55859H107.352ZM107.352 18H103.988V1.19531H110.715C111.332 1.19531 111.926 1.27734 112.496 1.44141C113.066 1.59766 113.598 1.82422 114.09 2.12109C114.59 2.41016 115.043 2.76172 115.449 3.17578C115.863 3.58203 116.215 4.03516 116.504 4.53516C116.801 5.03516 117.027 5.57031 117.184 6.14062C117.348 6.71094 117.43 7.30469 117.43 7.92188C117.43 8.5 117.355 9.0625 117.207 9.60938C117.066 10.1562 116.859 10.6758 116.586 11.168C116.32 11.6602 115.992 12.1133 115.602 12.5273C115.211 12.9414 114.773 13.3008 114.289 13.6055L116.152 18H112.578L111.113 14.6133L107.352 14.6367V18ZM136.32 18H132.969V6C132.969 5.76562 132.922 5.54688 132.828 5.34375C132.742 5.14062 132.621 4.96484 132.465 4.81641C132.316 4.66016 132.141 4.53906 131.938 4.45312C131.734 4.36719 131.516 4.32422 131.281 4.32422C131.047 4.32422 130.828 4.36719 130.625 4.45312C130.422 4.53906 130.242 4.66016 130.086 4.81641C129.938 4.96484 129.82 5.14062 129.734 5.34375C129.648 5.54688 129.605 5.76562 129.605 6V18H126.242V6C126.242 5.76562 126.199 5.54688 126.113 5.34375C126.027 5.14062 125.906 4.96484 125.75 4.81641C125.602 4.66016 125.426 4.53906 125.223 4.45312C125.02 4.36719 124.801 4.32422 124.566 4.32422C124.332 4.32422 124.113 4.36719 123.91 4.45312C123.707 4.53906 123.527 4.66016 123.371 4.81641C123.223 4.96484 123.105 5.14062 123.02 5.34375C122.934 5.54688 122.891 5.76562 122.891 6V18H119.527V6C119.527 5.30469 119.656 4.65234 119.914 4.04297C120.18 3.42578 120.539 2.89062 120.992 2.4375C121.453 1.97656 121.988 1.61719 122.598 1.35938C123.215 1.09375 123.871 0.960938 124.566 0.960938C125.191 0.960938 125.793 1.07422 126.371 1.30078C126.949 1.51953 127.469 1.83984 127.93 2.26172C128.391 1.83984 128.906 1.51953 129.477 1.30078C130.055 1.07422 130.656 0.960938 131.281 0.960938C131.977 0.960938 132.629 1.09375 133.238 1.35938C133.855 1.61719 134.391 1.97656 134.844 2.4375C135.305 2.89062 135.664 3.42578 135.922 4.04297C136.188 4.65234 136.32 5.30469 136.32 6V18Z" fill="black"/>
</svg>
